<?xml version="1.0" encoding="UTF-8"?>
<svg version="1.1" xmlns="http://www.w3.org/2000/svg" width="1024" height="1024">
<path d="M0 0 C3.44218682 0.00186446 6.8843681 0.00002337 10.32655466 -0.00178874 C21.60899904 -0.00767458 32.89142263 -0.00160406 44.17386389 0.00703955 C48.09446318 0.0098885 52.01506274 0.01203779 55.93566245 0.01421213 C82.5635892 0.02929289 109.1914501 0.06726459 135.81933254 0.11721277 C143.05751255 0.13066888 150.29569393 0.14228264 157.53387833 0.15309477 C179.30266843 0.18627207 201.07129955 0.23416033 222.8399477 0.32129049 C224.71815929 0.3287794 226.59637095 0.33625183 228.47458267 0.34370756 C229.39780278 0.34737573 230.32102289 0.3510439 231.27221936 0.35482323 C237.73637747 0.37952487 244.20051161 0.39424111 250.66470718 0.40462065 C258.53887367 0.41741394 266.41284407 0.44413609 274.28689802 0.48858631 C278.28639007 0.51082332 282.28564628 0.52713095 286.28520584 0.52609205 C324.29652589 0.52690157 353.762717 8.24461148 381.45868301 35.37245512 C401.77264837 56.68957926 409.32472648 84.391616 409.32069778 113.17305326 C409.32400149 114.60113539 409.32772812 116.02921658 409.33183926 117.45729661 C409.34180999 121.36835866 409.34556808 125.27940537 409.34822857 129.19047832 C409.35214639 133.41435182 409.36172372 137.63821334 409.37044144 141.86207914 C409.39016533 152.0569263 409.40026736 162.25177439 409.40916923 172.44663584 C409.41355924 177.25567779 409.41892423 182.06471865 409.4241581 186.87375975 C409.4411671 202.87439702 409.45565893 218.87503362 409.46290684 234.87567854 C409.46481652 239.02401814 409.46673688 243.17235773 409.46869278 247.32069731 C409.46917652 248.35166103 409.46966026 249.38262475 409.47015866 250.44482979 C409.47845027 267.12741562 409.50377397 283.80992954 409.53627346 300.492484 C409.56941692 317.64642351 409.58736221 334.80032658 409.59055108 351.95429826 C409.59270955 361.57488212 409.60136055 371.19536116 409.62701225 380.81591368 C409.64881913 389.01309039 409.65672095 397.21013681 409.64704547 405.40733925 C409.64252936 409.58202378 409.64422809 413.75644004 409.66380692 417.93108702 C409.82780715 454.99451486 403.32082894 486.45857332 376.67352676 514.00917387 C371.84131685 518.67918373 366.87868572 522.59417625 361.17352676 526.13417387 C360.12551895 526.79159575 359.07751114 527.44901762 357.99774551 528.12636137 C339.30714216 539.50956255 320.03587324 543.62146387 298.25511551 543.52185392 C296.73264213 543.52604063 295.21017187 543.53152538 293.68770725 543.53817374 C289.55748386 543.55247206 285.42746265 543.54843327 281.29722893 543.54100692 C276.82196566 543.53623834 272.34674386 543.54881744 267.87149429 543.55902433 C259.12470159 543.57614611 250.37798094 543.57706614 241.63117584 543.57181143 C234.51551769 543.567756 227.3998807 543.56922952 220.28422356 543.57455969 C219.26819305 543.57530811 218.25216253 543.57605653 217.20534322 543.57682763 C215.14071092 543.57835925 213.07607862 543.57989759 211.01144633 543.5814426 C191.68656995 543.59514376 172.36173415 543.58974681 153.03685872 543.57825739 C135.39455994 543.56832814 117.75236608 543.58126463 100.11008348 543.60519158 C81.95239857 543.62963016 63.79476243 543.63917874 45.63706142 543.63253886 C35.45994789 543.62905711 25.28291499 543.6312093 15.10581398 543.64878988 C6.44222167 543.66357155 -2.22123322 543.66406988 -10.884823 543.64671897 C-15.29651038 543.63825532 -19.70795292 543.63594458 -24.119627 543.65137053 C-47.75200986 543.72793199 -69.41421402 543.16507101 -90.82647324 532.13417387 C-91.44780136 531.81932035 -92.06912949 531.50446684 -92.70928574 531.18007231 C-100.11776732 527.37121384 -106.57856254 523.05320268 -112.60381699 517.26308012 C-114.58201583 515.36832024 -116.61750981 513.70466316 -118.76397324 512.00917387 C-135.88238082 496.89251556 -145.83739813 472.30517964 -148.82647324 450.13417387 C-149.10431485 445.23312186 -149.10590038 440.33808426 -149.09389877 435.43081999 C-149.09764206 433.96714893 -149.10224627 432.50347988 -149.10762942 431.03981394 C-149.11979161 427.04429554 -149.119607 423.04886129 -149.11724067 419.05332863 C-149.11683076 414.73338606 -149.12788835 410.41346985 -149.1373558 406.09353971 C-149.15393081 397.63871233 -149.15946381 389.18391283 -149.16058056 380.72907055 C-149.16153294 373.85020975 -149.16565272 366.97135811 -149.17198181 360.09250021 C-149.18958668 340.55863834 -149.19882216 321.0247984 -149.19732086 301.49092854 C-149.19724095 300.43903202 -149.19716104 299.3871355 -149.1970787 298.30336332 C-149.19699694 297.25017119 -149.19691518 296.19697906 -149.19683094 295.11187201 C-149.19601883 278.06088129 -149.21513958 261.00997908 -149.24335544 243.95901395 C-149.27214683 226.42077039 -149.28589222 208.88256989 -149.28416789 191.34430212 C-149.28350602 181.51026526 -149.28890851 171.67632112 -149.31052399 161.84230566 C-149.32881855 153.4658662 -149.33301586 145.08956146 -149.31950514 136.71311057 C-149.31301624 132.44727579 -149.31270864 128.18169883 -149.33021164 123.91588926 C-149.44825134 93.17538751 -146.51734627 67.43422391 -127.82647324 42.13417387 C-127.12135605 41.17382231 -126.41623886 40.21347075 -125.68975449 39.22401762 C-119.4836717 31.14025949 -112.05697254 25.05380222 -103.82647324 19.13417387 C-103.19741074 18.6520645 -102.56834824 18.16995512 -101.92022324 17.67323637 C-86.37532464 6.37329085 -65.54372687 1.34211135 -46.66021347 0.57997465 C-45.61877151 0.53786423 -44.57732954 0.4957538 -43.50432873 0.45236731 C-29.00778847 -0.07137609 -14.50376926 -0.01125147 0 0 Z " fill="#277FC5" transform="translate(381.826473236084,222.86582612991333)"/>
<path d="M0 0 C31.23626455 -0.06862274 62.47250894 -0.12162404 93.70883111 -0.15319599 C97.40704313 -0.15694755 101.105255 -0.16083057 104.8034668 -0.16479492 C105.53963074 -0.16558185 106.27579469 -0.16636878 107.03426663 -0.16717956 C118.9120453 -0.18018904 130.78977986 -0.20381795 142.66753247 -0.23145839 C154.87967513 -0.25963731 167.09179489 -0.27620247 179.30396873 -0.28226548 C186.82317473 -0.28635622 194.34225598 -0.2992163 201.86142353 -0.3237494 C207.6533611 -0.34166993 213.44522098 -0.34333448 219.23718071 -0.33932304 C221.59398917 -0.34014044 223.95080288 -0.34600019 226.30758286 -0.35761642 C244.43007694 -0.44246931 262.93808495 0.06991742 280.1875 6.25 C281.05914795 6.55156006 281.9307959 6.85312012 282.82885742 7.16381836 C289.35053233 9.52504056 294.6789064 12.52568161 300 17 C301.37429045 17.93853982 302.74927694 18.87606136 304.125 19.8125 C312.98970261 26.5281838 320.48847377 37.16078153 323 48 C324.23426093 60.18049339 323.77633261 71.21920712 316 81.125 C312.24778561 85.10824245 307.90616014 87.93989804 303.30859375 90.8671875 C299.78594462 93.13798611 296.39329272 95.54275585 293 98 C287.37625317 102.04720892 281.67097057 105.9434834 275.88525391 109.75683594 C259.65456894 120.44822478 259.65456894 120.44822478 243.74121094 131.60205078 C239.39056787 134.74418188 234.94511843 137.71519712 230.46484375 140.66796875 C225.89618073 143.71328331 221.42585937 146.9007066 216.9375 150.0625 C210.98373161 154.25350637 205.00771541 158.33141802 198.8203125 162.171875 C195.02935557 164.62917118 191.3654949 167.25267696 187.6875 169.875 C163.14583507 187.33802151 163.14583507 187.33802151 152.45581055 187.22705078 C151.71380905 187.22734283 150.97180756 187.22763489 150.20732117 187.22793579 C147.76699933 187.22654803 145.32698692 187.21101313 142.88671875 187.1953125 C141.18992784 187.1915804 139.49313478 187.18873436 137.79634094 187.18673706 C133.33948778 187.17911613 128.88276583 187.1594809 124.42596436 187.1373291 C119.87448908 187.11683747 115.32299252 187.10772825 110.77148438 187.09765625 C101.84759873 187.07623352 92.9238103 187.04211619 84 187 C83.82458679 187.54926147 83.64917358 188.09852295 83.46844482 188.66442871 C81.69699254 194.1075 79.69338572 199.39033071 77.453125 204.65625 C77.11883484 205.44342407 76.78454468 206.23059814 76.44012451 207.04162598 C75.73630616 208.69288738 75.030327 210.34322933 74.32226562 211.99267578 C73.25476855 214.4888495 72.20554626 216.99222528 71.15625 219.49609375 C67.65300542 227.74231277 64.34648209 235.49845552 58 242 C57.33734131 242.69665771 56.67468262 243.39331543 55.99194336 244.11108398 C50.28416242 249.65044071 44.12371471 252.60128327 36.8125 255.5625 C34.58739616 256.49988969 32.36342744 257.43997856 30.140625 258.3828125 C28.55024414 259.05231934 28.55024414 259.05231934 26.92773438 259.73535156 C22.22384975 261.76721634 17.69435722 264.07874337 13.16015625 266.46484375 C9.77863527 268.10753565 6.34492504 269.47105489 2.84838867 270.84643555 C-2.62319008 273.06236163 -7.99031298 275.51982382 -13.375 277.9375 C-21.86825132 281.74795982 -30.38171938 285.48000346 -39 289 C-39.87575684 289.37632568 -40.75151367 289.75265137 -41.65380859 290.14038086 C-44 291 -44 291 -47 291 C-45.52980678 285.04921793 -43.44034727 279.60084135 -40.8046875 274.06640625 C-40.17275329 272.73021478 -39.54150532 271.39369857 -38.91088867 270.05688477 C-38.59131195 269.38070099 -38.27173523 268.70451721 -37.94247437 268.00784302 C-35.60519877 263.02852192 -33.35852049 258.00729461 -31.09100342 252.99594116 C-19.41001521 227.19131806 -7.49160065 201.49535441 4.4453125 175.80834961 C11.87998077 159.80800944 19.26905871 143.78668007 26.625 127.75 C27.07182129 126.77748291 27.51864258 125.80496582 27.97900391 124.80297852 C30.2807618 119.78511278 32.55921522 114.75817137 34.8046875 109.71484375 C35.484104 108.19648926 35.484104 108.19648926 36.17724609 106.64746094 C37.03755866 104.72231705 37.8923579 102.79469661 38.74072266 100.86425781 C39.12534668 100.00541992 39.5099707 99.14658203 39.90625 98.26171875 C40.23947266 97.50850342 40.57269531 96.75528809 40.91601562 95.97924805 C42.16237505 93.70351925 42.88628339 92.53998753 45 91 C47.67117271 90.71952633 50.10633133 90.62085567 52.77612305 90.65942383 C53.96183899 90.65876671 53.96183899 90.65876671 55.17150879 90.65809631 C57.78516308 90.66018689 60.39817647 90.68353024 63.01171875 90.70703125 C64.8234675 90.71262626 66.63522079 90.7168968 68.44697571 90.71989441 C73.2162834 90.73135071 77.98531716 90.76082463 82.7545166 90.79400635 C87.62081191 90.82469032 92.48715147 90.83839617 97.35351562 90.85351562 C106.90246413 90.88569359 116.45120929 90.93689943 126 91 C120.140625 105.6484375 120.140625 105.6484375 119.06835938 108.32714844 C118.35952945 110.10051909 117.65248008 111.87460255 116.94726562 113.64941406 C116.60888672 114.49987305 116.27050781 115.35033203 115.921875 116.2265625 C115.6237793 116.97760254 115.32568359 117.72864258 115.01855469 118.50244141 C113.72001347 121.68654416 112.36102356 124.84209785 111 128 C120.69437906 127.96159508 130.38833918 127.90174091 140.08241653 127.81609726 C144.58604425 127.77694925 149.08948599 127.74460363 153.59326172 127.72900391 C195.50858092 128.34937434 195.50858092 128.34937434 232 110 C241.28212044 100.42403217 244.38949427 89.40280904 244.28125 76.359375 C243.82651292 70.92779316 241.67081044 68.47195057 237.71879387 64.99030304 C228.53441914 58.26684778 216.91769871 58.42891386 206.01123047 58.51757812 C204.45082254 58.51538659 202.89041629 58.51138126 201.33001709 58.50572205 C197.99669118 58.49722206 194.66368892 58.50084745 191.33037949 58.5141449 C186.05023609 58.5346487 180.77041199 58.52443329 175.49026489 58.5098877 C164.2851471 58.48324623 153.08013582 58.48984271 141.875 58.5 C129.76711208 58.51097069 117.65939158 58.51608363 105.55153191 58.48270559 C100.31171519 58.46939705 95.07238649 58.47519745 89.8325994 58.49607086 C86.56519987 58.50510336 83.29798547 58.49754173 80.0306015 58.48565865 C78.52585079 58.48354159 77.02107163 58.48816794 75.51636887 58.5003643 C61.39012543 58.60833567 51.40941788 55.80130756 41 46 C39.16410858 44.05078195 37.4233591 42.05812173 35.7109375 40 C33.90198782 37.88542868 31.98631212 35.94826017 30 34 C27.4207494 31.46027814 24.97782611 28.87548686 22.625 26.125 C19.89381214 22.93861416 17.00126805 19.99576349 14 17.0625 C10.06382325 13.18632595 6.63346015 9.17172795 3.375 4.71484375 C2.09452919 2.87307713 2.09452919 2.87307713 0 2 C0 1.34 0 0.68 0 0 Z " fill="#FCFDFD" transform="translate(330,305)"/>
<path d="M0 0 C0 3 0 3 -2.1953125 5.38671875 C-3.58363281 6.68029297 -3.58363281 6.68029297 -5 8 C-11.86219453 14.71177841 -11.86219453 14.71177841 -18.3125 21.8125 C-21.52238962 25.57134937 -24.98790696 29.02741862 -28.5 32.5 C-33.59582438 37.53849652 -33.59582438 37.53849652 -38.375 42.875 C-42.46129117 47.70051972 -47.03083179 52.05470868 -51.51977539 56.50024414 C-55.29016144 60.24809519 -58.90219985 64.04862244 -62.33203125 68.11328125 C-65.18376385 71.33901157 -68.29145368 74.31009964 -71.375 77.3125 C-73.44455078 79.43132579 -75.38215475 81.57137354 -77.3125 83.8125 C-81.63631675 88.80079941 -86.32914278 93.38030863 -91.0390625 98 C-94.22418184 101.14822607 -97.31529941 104.31095013 -100.22265625 107.71875 C-105.30491834 113.61942806 -110.91289188 119.01857197 -116.4375 124.5 C-117.5620833 125.61955632 -118.68643405 126.73934629 -119.81054688 127.859375 C-122.53769344 130.57561534 -125.26795907 133.28868292 -128 136 C-126.41767089 140.25769409 -124.58783674 142.82183002 -121.4375 146.125 C-116.84806848 151.02667146 -112.56463702 156.11067119 -108.35009766 161.33642578 C-105.56862521 164.76372293 -102.74824041 168.15920509 -99.9375 171.5625 C-96.26222995 176.01869236 -92.59436309 180.47805934 -89 185 C-80.57207138 195.58893596 -71.91929772 205.99216321 -63.06762695 216.22875977 C-59.70828936 220.12883811 -56.49550484 224.1141246 -53.40234375 228.23046875 C-52.03032322 230.04422597 -52.03032322 230.04422597 -50.31640625 231.61328125 C-49 233 -49 233 -49 235 C-59.20610626 235.09313461 -69.41210958 235.16398385 -79.61855602 235.20724869 C-84.3590578 235.22802528 -89.09926646 235.25615892 -93.83959961 235.30175781 C-98.42377368 235.34557303 -103.0076678 235.36921154 -107.59203529 235.37950897 C-109.33134677 235.38683689 -111.07064484 235.40114451 -112.80983543 235.42292023 C-126.57778929 235.58827377 -140.20909302 234.64763245 -151 225 C-153.32171033 222.41426846 -155.47515507 219.74630424 -157.609375 217.00390625 C-160.15532961 213.80482276 -162.84329253 210.80508648 -165.625 207.8125 C-171.8596624 201.0783404 -177.86829308 194.17791044 -183.8125 187.1875 C-184.29332031 186.62361572 -184.77414062 186.05973145 -185.26953125 185.47875977 C-187.32728889 183.04942196 -189.23162547 180.65256179 -191 178 C-196.44956891 178.35540667 -200.30100123 179.94219861 -205.08203125 182.55078125 C-207.55503185 183.77900511 -209.98762849 184.81068529 -212.5546875 185.81640625 C-218.58214202 188.18899235 -224.4388458 190.89781605 -230.3125 193.625 C-232.41224814 194.59746105 -234.51249081 195.56885518 -236.61328125 196.5390625 C-237.52891846 196.96396973 -238.44455566 197.38887695 -239.38793945 197.82666016 C-246.45235123 201 -246.45235123 201 -250 201 C-250 201.66 -250 202.32 -250 203 C-250.7110791 203.29205322 -251.4221582 203.58410645 -252.15478516 203.88500977 C-259.95378049 207.1087548 -267.6771957 210.479714 -275.375 213.9375 C-275.98829163 214.21257385 -276.60158325 214.48764771 -277.23345947 214.77105713 C-292.52266487 221.63308741 -307.69512356 228.74269561 -322.85992432 235.87472534 C-331.56658551 239.96802582 -340.31060321 243.95484116 -349.125 247.8125 C-350.2078125 248.28880859 -351.290625 248.76511719 -352.40625 249.25585938 C-356.91491169 251.2346609 -361.41957 253.19215345 -366 255 C-361.81662749 250.51482106 -357.15104333 247.02111848 -352.1875 243.4375 C-350.47213431 242.18821636 -348.75729844 240.93820492 -347.04296875 239.6875 C-346.19009277 239.06617188 -345.3372168 238.44484375 -344.45849609 237.8046875 C-341.58783746 235.69744732 -338.75021795 233.54965458 -335.91601562 231.39379883 C-328.67596579 225.89088123 -321.26483033 220.69052609 -313.73681641 215.58935547 C-308.61652146 212.11859393 -303.57662046 208.57703014 -298.6171875 204.87890625 C-295.59865948 202.71187345 -292.50981537 200.66687494 -289.41357422 198.61303711 C-285.44681385 195.96197644 -281.53393725 193.23535603 -277.625 190.5 C-276.76285889 189.89687988 -275.90071777 189.29375977 -275.01245117 188.67236328 C-268.249263 183.92045203 -261.58506767 179.04469929 -254.94702148 174.12011719 C-247.69970591 168.7519588 -240.33837671 163.55605434 -232.95507812 158.37744141 C-229.93543387 156.24996477 -226.93749314 154.09254486 -223.9375 151.9375 C-218.53330401 148.06421165 -213.07343892 144.27824897 -207.58691406 140.52270508 C-201.5986857 136.42120792 -195.64182565 132.27552101 -189.6875 128.125 C-181.81961923 122.6424977 -173.92584428 117.20085145 -166.00170898 111.80004883 C-159.44660224 107.32445497 -152.9429975 102.77726379 -146.4621582 98.19482422 C-141.02346525 94.36495473 -135.51177124 90.6551151 -129.97213745 86.97380066 C-123.25904758 82.51251851 -116.57437585 78.00981302 -109.8984375 73.49316406 C-108.53220789 72.56937657 -107.1653295 71.64654796 -105.79785156 70.72460938 C-103.77789747 69.36273557 -101.75983953 67.99809383 -99.7421875 66.6328125 C-99.13696259 66.22547882 -98.53173767 65.81814514 -97.90817261 65.39846802 C-94.47760011 63.07168643 -91.22154985 60.60606502 -88 58 C-86.72813205 57.27652855 -85.43585691 56.58766397 -84.125 55.9375 C-79.60328623 53.51029244 -75.59553466 50.57000019 -71.5 47.5 C-66.80897926 43.98477981 -62.19929474 40.81485968 -56.984375 38.109375 C-54.06332959 36.47634961 -51.48605268 34.45870148 -48.84375 32.4140625 C-45.59203235 29.92016041 -42.2109601 27.66921479 -38.625 25.6875 C-36.17929881 24.11526352 -34.26079148 22.45917795 -32.125 20.5 C-28.63108634 17.36594636 -25.35628474 15.78918837 -21 14 C-18.8318013 12.475547 -16.76108829 10.87192001 -14.69921875 9.20703125 C-13 8 -13 8 -11 8 C-11 7.34 -11 6.68 -11 6 C-10.45730469 5.73445313 -9.91460938 5.46890625 -9.35546875 5.1953125 C-8.64003906 4.84210938 -7.92460938 4.48890625 -7.1875 4.125 C-6.47980469 3.77695312 -5.77210938 3.42890625 -5.04296875 3.0703125 C-2.78753582 1.9343514 -2.78753582 1.9343514 0 0 Z " fill="#FBFCFD" transform="translate(751,337)"/>
<path d="M0 0 C10.395 -0.0825 20.79 -0.165 31.5 -0.25 C34.74779297 -0.28641602 37.99558594 -0.32283203 41.34179688 -0.36035156 C43.96744123 -0.37205342 46.59309295 -0.38224168 49.21875 -0.390625 C50.20470154 -0.40630524 50.20470154 -0.40630524 51.21057129 -0.42230225 C63.63763272 -0.60956347 76.73578305 0.33095314 87 8 C91.94680871 12.94680871 92.72444731 18.15262219 93.375 24.875 C93.18938534 31.16114967 90.4842359 37.32636314 86.8125 42.375 C83.21679485 45.73099148 79.58424946 47.34394929 75 49 C74.18055908 49.34369629 73.36111816 49.68739258 72.5168457 50.04150391 C67.74565625 51.34186418 63.27307727 51.24740574 58.3515625 51.1953125 C57.33903412 51.1924826 56.32650574 51.18965271 55.28329468 51.18673706 C52.06374062 51.17558254 48.84446935 51.15048646 45.625 51.125 C43.43620195 51.1149641 41.24739951 51.10583931 39.05859375 51.09765625 C33.70553375 51.07736413 28.35308176 51.03820598 23 51 C23 57.93 23 64.86 23 72 C15.41 72 7.82 72 0 72 C0 48.24 0 24.48 0 0 Z " fill="#FBFBFC" transform="translate(358,613)"/>
<path d="M0 0 C1.09812012 -0.00668701 2.19624023 -0.01337402 3.32763672 -0.02026367 C7.58851615 0.24143789 10.89401907 0.45382156 14.06738281 3.48046875 C15.63654713 5.81121444 16.91201974 8.18515916 18.1875 10.6875 C19.17187774 12.22794593 20.17471509 13.75674566 21.1953125 15.2734375 C28.08733601 25.84772676 34.90497622 36.46561276 41.60351562 47.16357422 C43.33801648 49.92733344 45.08338078 52.68410368 46.828125 55.44140625 C48.03171136 57.35648096 49.23484616 59.27183954 50.4375 61.1875 C51.01113281 62.09040771 51.58476563 62.99331543 52.17578125 63.92358398 C52.70042969 64.76348877 53.22507812 65.60339355 53.765625 66.46875 C54.23387695 67.21189453 54.70212891 67.95503906 55.18457031 68.72070312 C56.1875 70.6875 56.1875 70.6875 56.1875 73.6875 C52.14707327 73.94983625 48.10883519 74.10900491 44.0625 74.25 C42.34933594 74.36311523 42.34933594 74.36311523 40.6015625 74.47851562 C32.28638684 74.69606383 32.28638684 74.69606383 29.11425781 71.78466797 C27.55573223 69.4734077 26.33244393 67.22613898 25.1875 64.6875 C24.1975 62.7075 24.1975 62.7075 23.1875 60.6875 C7.6775 60.3575 -7.8325 60.0275 -23.8125 59.6875 C-24.4725 61.3375 -25.1325 62.9875 -25.8125 64.6875 C-27.35174775 68.24287026 -28.91215716 71.07473237 -31.8125 73.6875 C-36.15027075 74.7955094 -40.24651472 74.54322533 -44.6875 74.25 C-45.8528125 74.20939453 -47.018125 74.16878906 -48.21875 74.12695312 C-51.08761602 74.0211343 -53.94789942 73.87349238 -56.8125 73.6875 C-55.16236481 69.38536184 -53.03519655 65.62374398 -50.5625 61.75 C-50.13283936 61.06977783 -49.70317871 60.38955566 -49.26049805 59.6887207 C-47.78243671 57.35202806 -46.29772003 55.01964852 -44.8125 52.6875 C-43.63660673 50.83600864 -42.46083017 48.98444315 -41.28515625 47.1328125 C-38.92852311 43.4240282 -36.56926592 39.71693766 -34.20703125 36.01171875 C-33.65176758 35.13733154 -33.09650391 34.26294434 -32.52441406 33.36206055 C-31.35668153 31.53768662 -30.17573099 29.72172234 -28.98339844 27.91333008 C-26.16247666 23.59922354 -23.59869113 19.43532876 -21.6015625 14.67578125 C-16.75741365 3.74733623 -12.25027007 0.0237102 0 0 Z " fill="#FBFCFD" transform="translate(505.8125,611.3125)"/>
<path d="M0 0 C24.45973864 -3.36737703 24.45973864 -3.36737703 33.41748047 2.07714844 C39.48767422 6.92843715 44.43277773 13.00893406 49.09423828 19.18579102 C49.72313965 19.78447998 50.35204102 20.38316895 51 21 C55.11068529 20.82096318 57.02165253 18.25106055 59.75 15.375 C63.46350949 11.54081517 67.24225919 7.92776725 71.30859375 4.47265625 C73.02252106 3.08206457 73.02252106 3.08206457 74.19091797 1.42626953 C76.92730229 -0.73107962 79.19910204 -0.33800303 82.63671875 -0.29296875 C83.93544922 -0.28330078 85.23417969 -0.27363281 86.57226562 -0.26367188 C87.94401639 -0.23860585 89.31576118 -0.21321101 90.6875 -0.1875 C92.07094924 -0.1724502 93.45441401 -0.1587623 94.83789062 -0.14648438 C98.22565207 -0.11107223 101.61263139 -0.06168054 105 0 C98.85337728 7.26674201 92.38077492 13.86856328 85.15234375 20.06640625 C81.68468023 23.18163936 78.45326242 26.52750336 75.19921875 29.86328125 C73 32 73 32 70 34 C70.57438771 37.50429196 71.71997535 39.04597504 74.31640625 41.42578125 C74.99896484 42.05806641 75.68152344 42.69035156 76.38476562 43.34179688 C77.10341797 43.99212891 77.82207031 44.64246094 78.5625 45.3125 C79.25408203 45.95123047 79.94566406 46.58996094 80.65820312 47.24804688 C84.75079912 51.01262492 88.91286052 54.69316886 93.10522461 58.34594727 C95.92696403 60.80919744 98.72192301 63.30018293 101.5 65.8125 C102.03625 66.28880859 102.5725 66.76511719 103.125 67.25585938 C104.45547439 68.46245031 105.73312708 69.72679272 107 71 C107 71.66 107 72.32 107 73 C102.91161435 73.24999536 98.82626367 73.42987854 94.73193359 73.54931641 C93.34442584 73.59915736 91.95743112 73.66707033 90.57177734 73.75439453 C79.08750889 74.45920523 79.08750889 74.45920523 73.94360352 70.86352539 C71.44508678 68.3521214 69.23031425 65.74856154 67 63 C65.59085173 61.69780002 64.15799739 60.42000194 62.6875 59.1875 C60.37527666 57.22885609 58.27767603 55.24954939 56.25 53 C55.5075 52.34 54.765 51.68 54 51 C50.4166839 51.29841867 48.71846237 52.93674198 46.28515625 55.45703125 C45.25551758 56.50793945 45.25551758 56.50793945 44.20507812 57.58007812 C43.49802734 58.31677734 42.79097656 59.05347656 42.0625 59.8125 C40.6599098 61.25880062 39.25501924 62.70287451 37.84765625 64.14453125 C37.22898682 64.78753174 36.61031738 65.43053223 35.97290039 66.09301758 C30.00841825 71.8582162 30.00841825 71.8582162 25.77026367 72.45410156 C24.58150635 72.4331543 23.39274902 72.41220703 22.16796875 72.390625 C20.22954102 72.37128906 20.22954102 72.37128906 18.25195312 72.3515625 C16.89712454 72.31814634 15.54230683 72.28428662 14.1875 72.25 C12.81317683 72.22992034 11.43882561 72.21167213 10.06445312 72.1953125 C6.70892144 72.14821732 3.35481873 72.08245135 0 72 C1.38562836 69.11723885 2.7193933 67.00780064 5 64.75 C5.7734375 63.96882812 5.7734375 63.96882812 6.5625 63.171875 C8 62 8 62 10 62 C10.33 61.01 10.66 60.02 11 59 C12.57361448 57.60639308 14.20995725 56.28297912 15.875 55 C21.21242769 50.75653595 25.9490116 46.18205342 30.6875 41.28515625 C33 39 33 39 36 37 C36.33 36.01 36.66 35.02 37 34 C36.41444336 33.73662842 35.82888672 33.47325684 35.22558594 33.2019043 C32.90143714 31.94677217 31.29392262 30.59314046 29.390625 28.76953125 C28.38128906 27.81143555 28.38128906 27.81143555 27.3515625 26.83398438 C26.65804687 26.16689453 25.96453125 25.49980469 25.25 24.8125 C20.49920441 20.27395478 15.70177338 15.83239802 10.73632812 11.52905273 C8.77933969 9.80568117 6.93372588 8.00295941 5.125 6.125 C2.81308065 3.72480848 2.81308065 3.72480848 0 2 C0 1.34 0 0.68 0 0 Z " fill="#F9FAFC" transform="translate(566,613)"/>
<path d="M0 0 C0.33 0 0.66 0 1 0 C2.74879961 19.58655568 -10.09359753 41.11962803 -22.1171875 55.5390625 C-40.52777458 76.70140992 -63.99443048 89.65427942 -92 93 C-97.44368387 93.26495657 -102.87722815 93.25416526 -108.32519531 93.22705078 C-109.93285617 93.2264854 -111.54051754 93.22680569 -113.1481781 93.22793579 C-117.4758881 93.22850537 -121.80348533 93.21681556 -126.13116932 93.20278788 C-130.66749805 93.19021416 -135.20382987 93.18910481 -139.74017334 93.18673706 C-148.31400409 93.1805417 -156.88778333 93.1641574 -165.46159148 93.14403808 C-175.22951222 93.12161831 -184.99743552 93.11067042 -194.76537561 93.10064721 C-214.8436124 93.07978928 -234.92180294 93.04465142 -255 93 C-254.67 92.01 -254.34 91.02 -254 90 C-250.34005642 89.10733083 -248.2250159 88.93454083 -244.5625 90 C-240.4842491 91.14477218 -238.16774956 90.61587127 -234 90 C-231.03522159 89.8759932 -228.07612854 89.90616454 -225.109375 89.9375 C-224.28294495 89.94128662 -223.45651489 89.94507324 -222.6050415 89.94897461 C-219.98663913 89.96110802 -217.36835137 89.97974756 -214.75 90 C-211.28646145 90.02657446 -207.82297692 90.04655629 -204.359375 90.0625 C-203.56561462 90.07079834 -202.77185425 90.07909668 -201.95404053 90.08764648 C-198.69935008 90.10221482 -196.11114558 90.03704853 -193 89 C-190.08452377 88.90324955 -187.1931233 88.86360626 -184.27758789 88.87060547 C-183.38624649 88.86885315 -182.49490509 88.86710083 -181.57655334 88.86529541 C-178.6252346 88.86088828 -175.67397562 88.86381116 -172.72265625 88.8671875 C-170.67386361 88.86651407 -168.62507105 88.86554372 -166.57627869 88.86428833 C-162.27976725 88.86281285 -157.9832766 88.8649609 -153.68676758 88.86962891 C-148.17750168 88.8753225 -142.66828453 88.87204857 -137.15902042 88.86605644 C-132.92715589 88.86244374 -128.69530292 88.86359275 -124.46343803 88.86618423 C-122.43204175 88.86685172 -120.40064441 88.86603128 -118.36924934 88.86370468 C-115.53007347 88.86116697 -112.69097662 88.8650348 -109.85180664 88.87060547 C-109.01063293 88.86858124 -108.16945923 88.86655701 -107.30279541 88.86447144 C-101.42463004 88.88585172 -101.42463004 88.88585172 -98.91794491 89.55969429 C-95.9725118 90.23588213 -93.83200748 88.98790959 -91 88 C-89.4685819 87.68771617 -87.93130624 87.40342511 -86.390625 87.140625 C-76.73258574 85.4812484 -69.07651277 83.80968484 -61 78 C-59.40669379 77.10537661 -57.80249764 76.22984403 -56.1875 75.375 C-52.82735761 73.54057598 -49.96694456 71.42750009 -47 69 C-46.34 69 -45.68 69 -45 69 C-45 68.34 -45 67.68 -45 67 C-44.21625 66.7525 -43.4325 66.505 -42.625 66.25 C-39.5144918 64.76880562 -39.38379532 64.02705226 -38 61 C-36.35697047 59.31002677 -34.68528688 57.64783606 -33 56 C-31.2258906 54.00711029 -29.48281521 51.9903503 -27.74609375 49.96484375 C-26 48 -26 48 -24.08984375 46.19140625 C-21.38428431 43.35436168 -19.28236691 40.26442042 -17.125 37 C-16.46745728 36.00685791 -16.46745728 36.00685791 -15.79663086 34.99365234 C-10.68872153 27.15141501 -6.41118619 19.0832223 -3.65625 10.11328125 C-2.59132794 6.68397866 -1.28054843 3.35381731 0 0 Z " fill="#2363AC" transform="translate(788,673)"/>
<path d="M0 0 C4.98141263 -0.09224838 9.95981736 -0.17175286 14.94140625 -0.21972656 C16.63291511 -0.2397406 18.32435567 -0.26696073 20.015625 -0.30175781 C22.45850554 -0.35073065 24.90046511 -0.37307033 27.34375 -0.390625 C28.08991577 -0.41127014 28.83608154 -0.43191528 29.6048584 -0.45318604 C35.0893748 -0.45548697 39.47385003 0.8164092 44 4 C46.49732489 7.74598733 46.62175294 9.57001031 46 14 C42.87944243 16.70448323 41.16725696 18 37 18 C37 18.66 37 19.32 37 20 C24.79 20 12.58 20 0 20 C0 13.4 0 6.8 0 0 Z " fill="#2262A5" transform="translate(381,629)"/>
<path d="M0 0 C0.33 0 0.66 0 1 0 C1.84647952 22.39343547 2.1117988 44.7807073 2.12338257 67.18838882 C2.12499551 69.24428029 2.12855344 71.30016052 2.13256836 73.35604858 C2.13958327 77.26341925 2.13696024 81.17074937 2.1328125 85.078125 C2.13578842 86.83401695 2.13578842 86.83401695 2.13882446 88.62538147 C2.12335619 94.10483011 1.91767555 99.42367906 1.22683716 104.85800171 C0.81397869 108.75657869 0.85761639 112.65765669 0.8671875 116.57421875 C0.86623077 117.46051468 0.86527405 118.34681061 0.86428833 119.25996399 C0.86361211 121.12472607 0.86542718 122.98949058 0.86962891 124.85424805 C0.8749529 127.66265344 0.86968132 130.47089658 0.86328125 133.27929688 C0.86066116 142.21220781 1.07256965 151.01722246 1.80859375 159.92114258 C2.11218957 164.80462074 1.8474349 169.6212084 1.5625 174.5 C1.07566837 184.44295655 0.88329377 194.35997927 0.875 204.3125 C0.87056885 205.611875 0.8661377 206.91125 0.86157227 208.25 C0.86342529 209.46300781 0.86527832 210.67601562 0.8671875 211.92578125 C0.86831543 213.00255127 0.86944336 214.07932129 0.87060547 215.1887207 C0.89734299 217.8979129 0.89734299 217.8979129 1.53515625 220.04321289 C2.14618219 222.61536251 1.85806928 224.75798584 1.5703125 227.3828125 C0.92407591 234.22543976 0.8521032 241.00595901 0.875 247.875 C0.87113281 249.05835938 0.86726562 250.24171875 0.86328125 251.4609375 C0.86457031 252.605625 0.86585938 253.7503125 0.8671875 254.9296875 C0.86831543 255.95304199 0.86944336 256.97639648 0.87060547 258.03076172 C1.00408047 261.09363529 1.47987227 263.98158296 2 267 C2.08370262 268.49701343 2.13046374 269.99674395 2.1328125 271.49609375 C2.13410156 272.30240234 2.13539063 273.10871094 2.13671875 273.93945312 C2.13285156 274.76380859 2.12898437 275.58816406 2.125 276.4375 C2.12886719 277.25798828 2.13273438 278.07847656 2.13671875 278.92382812 C2.13107067 282.46235144 2.03205835 285.79345612 1.48828125 289.296875 C0.61513709 295.91880029 1.002995 302.61185221 1.12695312 309.27929688 C1.13791016 310.36919922 1.14886719 311.45910156 1.16015625 312.58203125 C1.17699463 313.57436768 1.19383301 314.5667041 1.21118164 315.58911133 C1 318 1 318 -1 320 C-1.02306655 288.76533976 -1.04063787 257.53068188 -1.05106533 226.29601509 C-1.05231528 222.5656702 -1.05360967 218.83532533 -1.05493164 215.10498047 C-1.05519395 214.36267681 -1.05545626 213.62037314 -1.05572652 212.85557543 C-1.05948954 202.46661628 -1.06564103 192.07766098 -1.07373433 181.68870434 C-1.08767137 163.7950743 -1.09693685 145.90144831 -1.09765625 128.0078125 C-1.09769482 127.31398724 -1.09773339 126.62016197 -1.09777313 125.9053117 C-1.09933471 83.93011121 -0.95800541 41.96582054 0 0 Z " fill="#16569D" transform="translate(234,350)"/>
<path d="M0 0 C3.79850338 1.26616779 4.25592332 2.56660535 6.3125 5.9375 C6.91835938 6.92492187 7.52421875 7.91234375 8.1484375 8.9296875 C8.75945313 9.94289063 9.37046875 10.95609375 10 12 C10.59039063 12.95132813 11.18078125 13.90265625 11.7890625 14.8828125 C16 21.72808057 16 21.72808057 16 24 C6.1 24 -3.8 24 -14 24 C-14 23.34 -14 22.68 -14 22 C-13.34 22 -12.68 22 -12 22 C-11.77570313 21.35675781 -11.55140625 20.71351563 -11.3203125 20.05078125 C-9.51647249 15.88273674 -7.2046875 12.0801011 -4.875 8.1875 C-4.40707031 7.39923828 -3.93914062 6.61097656 -3.45703125 5.79882812 C-2.30784603 3.86397546 -1.15542997 1.93112772 0 0 Z " fill="#2A72B6" transform="translate(504,633)"/>
<path d="M0 0 C2.82643109 0.51533805 2.82643109 0.51533805 5.8828125 -0.09765625 C10.19211174 -0.68292325 14.31726469 -0.73332926 18.65625 -0.6875 C19.48268005 -0.68371338 20.30911011 -0.67992676 21.1605835 -0.67602539 C23.77898587 -0.66389198 26.39727363 -0.64525244 29.015625 -0.625 C32.47916355 -0.59842554 35.94264808 -0.57844371 39.40625 -0.5625 C40.20001038 -0.55420166 40.99377075 -0.54590332 41.81158447 -0.53735352 C45.06627492 -0.52278518 47.65447942 -0.58795147 50.765625 -1.625 C53.29963931 -1.74715685 55.80483841 -1.81292708 58.33984375 -1.828125 C59.50445633 -1.83830658 59.50445633 -1.83830658 60.69259644 -1.84869385 C63.27947886 -1.86592341 65.86618848 -1.87193068 68.453125 -1.875 C69.33902313 -1.87733643 70.22492126 -1.87967285 71.13766479 -1.88208008 C94.06963926 -1.90459627 116.90557848 -0.30127462 139.765625 1.375 C139.765625 1.705 139.765625 2.035 139.765625 2.375 C89.935625 2.375 40.105625 2.375 -11.234375 2.375 C-10.904375 1.385 -10.574375 0.395 -10.234375 -0.625 C-6.32211558 -1.92908647 -3.91723979 -0.98546913 0 0 Z " fill="#0E468C" transform="translate(544.234375,763.625)"/>
<path d="M0 0 C0.33 0 0.66 0 1 0 C2.55192791 17.38159255 -7.88208061 37.29934989 -18.140625 50.80078125 C-19.99199484 52.99053171 -21.93920017 55.00758954 -24 57 C-24 56.01 -24 55.02 -24 54 C-30.23317176 56.59872418 -33.87661054 60.72930467 -38.3203125 65.61328125 C-38.866875 66.18949219 -39.4134375 66.76570312 -39.9765625 67.359375 C-40.46205566 67.89014648 -40.94754883 68.42091797 -41.44775391 68.96777344 C-43 70 -43 70 -45.18896484 69.66503906 C-45.78660645 69.44557617 -46.38424805 69.22611328 -47 69 C-46.34 69 -45.68 69 -45 69 C-45 68.34 -45 67.68 -45 67 C-44.21625 66.7525 -43.4325 66.505 -42.625 66.25 C-39.5144918 64.76880562 -39.38379532 64.02705226 -38 61 C-36.35697047 59.31002677 -34.68528688 57.64783606 -33 56 C-31.2258906 54.00711029 -29.48281521 51.9903503 -27.74609375 49.96484375 C-26 48 -26 48 -24.08984375 46.19140625 C-21.38428431 43.35436168 -19.28236691 40.26442042 -17.125 37 C-16.68663818 36.33790527 -16.24827637 35.67581055 -15.79663086 34.99365234 C-10.68872153 27.15141501 -6.41118619 19.0832223 -3.65625 10.11328125 C-2.59132794 6.68397866 -1.28054843 3.35381731 0 0 Z " fill="#2168B3" transform="translate(788,673)"/>
<path d="M0 0 C-0.8979578 7.40815182 -5.57673847 13.04704777 -10.3125 18.5 C-10.79960449 19.06895996 -11.28670898 19.63791992 -11.78857422 20.22412109 C-14.80434035 23.71569255 -17.94418594 27.00421502 -21.265625 30.20703125 C-24.28248381 33.32581096 -26.92608898 36.75464499 -29.64453125 40.1328125 C-33.27957445 44.55755829 -37.12924333 48.78151578 -41 53 C-41.495 51.515 -41.495 51.515 -42 50 C-41.01 49.01 -40.02 48.02 -39 47 C-39.33 46.67 -39.66 46.34 -40 46 C-42.475 48.475 -42.475 48.475 -45 51 C-45.99 50.67 -46.98 50.34 -48 50 C-47.25556641 49.27296875 -47.25556641 49.27296875 -46.49609375 48.53125 C-43.1418163 45.22152652 -39.86244305 41.90652836 -36.8125 38.3125 C-33.55567304 34.51661203 -30.05365763 31.01403322 -26.5 27.5 C-21.78348663 22.83080505 -17.28036322 18.07620965 -13 13 C-11.75297377 11.5599195 -10.50295781 10.12242264 -9.25 8.6875 C-8.69828125 8.05199219 -8.1465625 7.41648437 -7.578125 6.76171875 C-6.10296916 5.11494825 -4.57954152 3.54623793 -3 2 C-4.32 2.99 -5.64 3.98 -7 5 C-7.66 4.67 -8.32 4.34 -9 4 C-4.5 0 -4.5 0 0 0 Z M-37 42 C-37.33 42.66 -37.66 43.32 -38 44 C-37.34 44 -36.68 44 -36 44 C-36.33 43.34 -36.66 42.68 -37 42 Z " fill="#388ED7" transform="translate(754,336)"/>
<path d="M0 0 C0.33 0 0.66 0 1 0 C1.84647952 22.39343547 2.1117988 44.7807073 2.12338257 67.18838882 C2.12499551 69.24428029 2.12855344 71.30016052 2.13256836 73.35604858 C2.13958327 77.26341925 2.13696024 81.17074937 2.1328125 85.078125 C2.13578842 86.83401695 2.13578842 86.83401695 2.13882446 88.62538147 C2.12333907 94.11089284 1.91419025 99.43345875 1.22238159 104.87365723 C0.82376656 108.68508864 0.89795867 112.49252934 0.9375 116.3203125 C0.94128662 117.18204071 0.94507324 118.04376892 0.94897461 118.93161011 C0.96508674 122.56970419 0.99308552 126.20767942 1.02050781 129.84570312 C1.09679553 140.95158886 0.95068996 151.92913052 0 163 C-0.33 163 -0.66 163 -1 163 C-1.03073609 148.20834279 -1.05102472 133.41668482 -1.0625 118.625 C-1.06335602 117.52940388 -1.06421204 116.43380775 -1.06509399 115.30501175 C-1.08542076 85.84539126 -0.99917415 56.39327214 -0.5 26.9375 C-0.48804218 26.23131783 -0.47608437 25.52513565 -0.46376419 24.79755402 C-0.32262598 16.53143931 -0.16935362 8.26558681 0 0 Z " fill="#1966B0" transform="translate(234,350)"/>
<path d="M0 0 C0.68318802 -0.00014603 1.36637604 -0.00029205 2.07026672 -0.0004425 C4.32658065 0.0002537 6.58281184 0.00803243 8.83911133 0.01586914 C10.40424047 0.01773436 11.96937019 0.01915777 13.53450012 0.02015686 C17.65267551 0.02397387 21.7708156 0.03379721 25.88897705 0.04486084 C30.09175133 0.05509248 34.29453131 0.05965824 38.49731445 0.06469727 C46.74277336 0.0754202 54.98820358 0.09248685 63.23364258 0.11352539 C62.90364258 0.77352539 62.57364258 1.43352539 62.23364258 2.11352539 C54.80265724 3.57244328 47.21385989 3.24089811 39.67114258 3.21118164 C38.27010143 3.20931334 36.86905962 3.20789139 35.46801758 3.20689392 C31.8052994 3.20310115 28.14262175 3.19329905 24.47991943 3.18218994 C20.73246814 3.17190566 16.98501021 3.16738136 13.23754883 3.16235352 C5.90289506 3.15167343 -1.43172547 3.13463658 -8.76635742 3.11352539 C-9.09635742 2.45352539 -9.42635742 1.79352539 -9.76635742 1.11352539 C-6.31064345 -0.03837927 -3.64586717 -0.00654554 0 0 Z " fill="#2574BF" transform="translate(350.766357421875,301.886474609375)"/>
<path d="M0 0 C4.74149774 0.06177409 9.48302425 0.12125799 14.22454834 0.18096924 C23.43616538 0.29729375 32.64774941 0.4160336 41.85931396 0.53643799 C41.85931396 1.19643799 41.85931396 1.85643799 41.85931396 2.53643799 C41.13963503 2.5345944 40.41995609 2.53275082 39.6784687 2.53085136 C22.186235 2.48672822 4.69401538 2.45360869 -12.79826164 2.43281364 C-21.25731273 2.42249064 -29.71632672 2.40841081 -38.175354 2.38555908 C-45.54620135 2.36565648 -52.91702185 2.35272901 -60.28789532 2.348261 C-64.19256293 2.34564829 -68.09715369 2.33948619 -72.00179672 2.32497787 C-75.67398275 2.31144332 -79.34605999 2.30720692 -83.01826859 2.31022263 C-85.0146142 2.30940661 -87.01094785 2.29862344 -89.00726318 2.28759766 C-90.18799408 2.29034698 -91.36872498 2.29309631 -92.5852356 2.29592896 C-93.61580015 2.29408537 -94.64636471 2.29224178 -95.70815849 2.29034233 C-98.32155701 2.2957477 -98.32155701 2.2957477 -100.14068604 4.53643799 C-103.17974854 4.95050049 -103.17974854 4.95050049 -106.76568604 5.16143799 C-107.95420166 5.23620361 -109.14271729 5.31096924 -110.36724854 5.38800049 C-111.28248291 5.43698486 -112.19771729 5.48596924 -113.14068604 5.53643799 C-113.14068604 4.87643799 -113.14068604 4.21643799 -113.14068604 3.53643799 C-112.08881104 3.41268799 -111.03693604 3.28893799 -109.95318604 3.16143799 C-106.30930928 2.72054502 -106.30930928 2.72054502 -103.77496338 1.52325439 C-100.77850341 0.40076216 -98.37433604 0.21951327 -95.17974854 0.12237549 C-93.98220947 0.08370361 -92.78467041 0.04503174 -91.55084229 0.00518799 C-90.30174072 -0.02574951 -89.05263916 -0.05668701 -87.76568604 -0.08856201 C-86.61713135 -0.12723389 -85.46857666 -0.16590576 -84.28521729 -0.20574951 C-56.21033744 -1.02888735 -28.0784911 -0.36840288 0 0 Z " fill="#2F8BD0" transform="translate(442.14068603515625,300.46356201171875)"/>
<path d="M0 0 C0.66 0.33 1.32 0.66 2 1 C-0.78800955 5.93952818 -4.29231132 10.0587134 -7.94140625 14.37890625 C-9.65536921 16.56120064 -10.89982252 18.47256524 -12 21 C-12.66 21 -13.32 21 -14 21 C-14.10957031 21.61488281 -14.21914062 22.22976563 -14.33203125 22.86328125 C-14.49058594 23.67152344 -14.64914063 24.47976563 -14.8125 25.3125 C-14.96332031 26.11300781 -15.11414063 26.91351563 -15.26953125 27.73828125 C-16 30 -16 30 -17.47924805 31.3972168 C-19.25047074 33.26398144 -19.57245737 34.40608104 -20.0625 36.90625 C-20.21976563 37.65003906 -20.37703125 38.39382813 -20.5390625 39.16015625 C-20.76722656 40.31837891 -20.76722656 40.31837891 -21 41.5 C-21.30206097 43.0333434 -21.61420887 44.56474194 -21.9375 46.09375 C-22.07027344 46.77115234 -22.20304688 47.44855469 -22.33984375 48.14648438 C-23.1302892 50.36581199 -24.24501115 51.46259152 -26 53 C-27.71944795 35.80552052 -15.21690567 17.9694793 -5 5 C-3.38206312 3.26979131 -1.71543007 1.63592707 0 0 Z " fill="#2672C0" transform="translate(262,256)"/>
<path d="M0 0 C0.75772705 0.03077637 1.5154541 0.06155273 2.29614258 0.09326172 C5.90742308 0.2988407 7.60406566 0.56937711 10.6875 2.625 C-15.0525 2.625 -40.7925 2.625 -67.3125 2.625 C-67.3125 1.965 -67.3125 1.305 -67.3125 0.625 C-44.92155424 -0.58741296 -22.41058129 -1.02501619 0 0 Z " fill="#0A3C80" transform="translate(508.3125,763.375)"/>
<path d="M0 0 C30.80029214 -0.44741187 61.28391919 0.71874248 92 3 C92 3.33 92 3.66 92 4 C61.62729096 4.37958587 31.34281933 3.27916185 1 2 C0.67 1.34 0.34 0.68 0 0 Z " fill="#104E96" transform="translate(592,762)"/>
<path d="M0 0 C0 0.99 0 1.98 0 3 C-11.62316836 6.5763595 -24.0252273 4.88575043 -36.01147461 4.20043945 C-38.45726145 4.0613764 -40.9033779 3.92981091 -43.34960938 3.79882812 C-44.9192957 3.71138279 -46.48895817 3.62350784 -48.05859375 3.53515625 C-48.78259872 3.49656998 -49.5066037 3.4579837 -50.25254822 3.41822815 C-53.91591995 3.20343613 -57.42363166 2.83275739 -61 2 C-61 1.67 -61 1.34 -61 1 C-54.80696911 0.9752796 -48.61396695 0.95713027 -42.42089844 0.94506836 C-40.31412251 0.94003987 -38.20735008 0.93321624 -36.10058594 0.92456055 C-33.07225686 0.91243011 -30.04397394 0.90675683 -27.015625 0.90234375 C-25.60292328 0.89460182 -25.60292328 0.89460182 -24.16168213 0.88670349 C-23.28107117 0.88662796 -22.40046021 0.88655243 -21.49316406 0.88647461 C-20.72039124 0.884254 -19.94761841 0.88203339 -19.15142822 0.87974548 C-17 1 -17 1 -14.8949585 1.56568909 C-12.8257697 2.21284609 -12.8257697 2.21284609 -10.1875 1.0625 C-6.62875452 -0.12374849 -3.72602572 -0.14904103 0 0 Z " fill="#185AA3" transform="translate(704,761)"/>
<path d="M0 0 C0.33 0 0.66 0 1 0 C0.98839844 1.21558594 0.97679687 2.43117188 0.96484375 3.68359375 C0.95546722 5.26822764 0.94636687 6.85286318 0.9375 8.4375 C0.92912109 9.23994141 0.92074219 10.04238281 0.91210938 10.86914062 C0.9034857 12.91295221 0.9477185 14.95683902 1 17 C1.33 17.33 1.66 17.66 2 18 C1.68238308 20.33552458 1.3459582 22.6685051 1 25 C0.89166014 27.34411774 0.82526422 29.69044456 0.79467773 32.03686523 C0.78477814 32.70113022 0.77487854 33.3653952 0.76467896 34.04978943 C0.73339256 36.21935611 0.70843836 38.38894459 0.68359375 40.55859375 C0.66299574 42.07317129 0.64199857 43.58774345 0.62062073 45.10231018 C0.56569384 49.0691184 0.51615627 53.03597594 0.46777344 57.00286865 C0.41734246 61.05859718 0.36176966 65.11425497 0.30664062 69.16992188 C0.19941901 77.11322126 0.09789569 85.05658022 0 93 C-0.33 93 -0.66 93 -1 93 C-1.02330001 82.94147421 -1.04100428 72.88295498 -1.05181217 62.82440758 C-1.0570027 58.15245985 -1.06402969 53.48053076 -1.07543945 48.80859375 C-1.08640581 44.28928065 -1.09230558 39.76998533 -1.09487724 35.25065994 C-1.09670696 33.53733669 -1.10027915 31.82401426 -1.10573006 30.1106987 C-1.13652487 20.01833586 -0.89998621 10.06038023 0 0 Z " fill="#2673BC" transform="translate(234,323)"/>
<path d="M0 0 C0.33 0 0.66 0 1 0 C2.05925683 5.18699577 2.14970761 10.17066203 2.125 15.4375 C2.12886719 16.25798828 2.13273438 17.07847656 2.13671875 17.92382812 C2.13107067 21.46235144 2.03205835 24.79345612 1.48828125 28.296875 C0.61513709 34.91880029 1.002995 41.61185221 1.12695312 48.27929688 C1.13791016 49.36919922 1.14886719 50.45910156 1.16015625 51.58203125 C1.17699463 52.57436768 1.19383301 53.5667041 1.21118164 54.58911133 C1 57 1 57 -1 59 C-1.02544148 51.88330858 -1.04290527 44.76662898 -1.05493164 37.64990234 C-1.05994752 35.23095257 -1.06676179 32.81200581 -1.07543945 30.39306641 C-1.08762545 26.90787002 -1.09325589 23.42271387 -1.09765625 19.9375 C-1.10539818 18.32609131 -1.10539818 18.32609131 -1.11329651 16.68212891 C-1.11371544 11.02218827 -0.84963973 5.59762647 0 0 Z " fill="#12488A" transform="translate(234,611)"/>
<path d="M0 0 C0.95132812 0.27714844 1.90265625 0.55429687 2.8828125 0.83984375 C17.74749253 4.80230431 32.71647687 4.82464009 48 5 C48 5.66 48 6.32 48 7 C31.46142018 7.46597646 16.06952751 7.14697484 0 3 C0 2.01 0 1.02 0 0 Z " fill="#0E3573" transform="translate(307,759)"/>
<path d="M0 0 C0 3 0 3 -1.87109375 5.09375 C-2.71800781 5.8878125 -3.56492187 6.681875 -4.4375 7.5 C-8.9152807 11.83903256 -12.86207246 16.3714291 -16.75 21.23828125 C-20.33569706 25.63947539 -24.16284309 29.81813396 -28 34 C-28.495 32.515 -28.495 32.515 -29 31 C-28.525625 30.566875 -28.05125 30.13375 -27.5625 29.6875 C-25.76313043 27.97690387 -25.76313043 27.97690387 -25 25 C-24.34 25 -23.68 25 -23 25 C-22.773125 24.443125 -22.54625 23.88625 -22.3125 23.3125 C-21.0037747 21.00665066 -19.52167411 19.43160247 -17.61328125 17.61328125 C-15.51561315 15.51561315 -13.58475057 13.28933753 -11.625 11.0625 C-7.98823886 6.98713451 -4.24404523 3.43135572 0 0 Z " fill="#379DE0" transform="translate(741,355)"/>
<path d="M0 0 C10.23 0 20.46 0 31 0 C30.67 0.99 30.34 1.98 30 3 C31.98 3.99 33.96 4.98 36 6 C32.56941444 7.14352852 31.98967228 6.85252561 28.6875 5.75 C19.37566804 3.01196811 9.60700257 2.18609678 0 1 C0 0.67 0 0.34 0 0 Z " fill="#379BDD" transform="translate(573,304)"/>
<path d="M0 0 C0 3 0 3 -1.8125 4.875 C-2.8953125 5.926875 -2.8953125 5.926875 -4 7 C-4.45375 7.763125 -4.9075 8.52625 -5.375 9.3125 C-9.69423456 16.45584946 -14.61473986 20.30736993 -22 24 C-20.59051682 22.34987335 -19.18011747 20.7005222 -17.765625 19.0546875 C-16.62683271 17.72945577 -15.49117303 16.40152257 -14.359375 15.0703125 C-9.82079455 9.78944086 -4.97300065 4.87151084 0 0 Z " fill="#4090D3" transform="translate(686,407)"/>
<path d="M0 0 C1 3 1 3 0.2890625 4.984375 C-1.13215701 7.20664551 -2.58868877 8.57876449 -4.625 10.25 C-8.44427738 13.44430472 -11.80562667 16.90044607 -15.140625 20.59375 C-17 22 -17 22 -19.234375 21.71875 C-19.81703125 21.4815625 -20.3996875 21.244375 -21 21 C-20.34 21 -19.68 21 -19 21 C-19 20.34 -19 19.68 -19 19 C-18.21625 18.7525 -17.4325 18.505 -16.625 18.25 C-13.5144918 16.76880562 -13.38379532 16.02705226 -12 13 C-10.35697047 11.31002677 -8.68528688 9.64783606 -7 8 C-4.63268418 5.36255478 -2.31242917 2.68561658 0 0 Z " fill="#1B6AB8" transform="translate(762,721)"/>
<path d="M0 0 C0.66 0 1.32 0 2 0 C0.52357373 5.22654901 -2.82231936 8.16826439 -6.625 11.8125 C-7.54152344 12.7087207 -7.54152344 12.7087207 -8.4765625 13.62304688 C-9.97764839 15.08895106 -11.48792862 16.54542993 -13 18 C-13.99 17.67 -14.98 17.34 -16 17 C-15.25556641 16.27296875 -15.25556641 16.27296875 -14.49609375 15.53125 C-10.26188493 11.35328304 -6.22406871 7.07858568 -2.34765625 2.56640625 C-1.59150381 1.68751602 -0.81982149 0.81982149 0 0 Z " fill="#408DD3" transform="translate(722,369)"/>
<path d="M0 0 C-0.44787324 4.64973854 -2.02185597 6.37027468 -5.5625 9.3125 C-6.38878906 10.00988281 -7.21507812 10.70726562 -8.06640625 11.42578125 C-8.70449219 11.94527344 -9.34257813 12.46476562 -10 13 C-10.66 12.67 -11.32 12.34 -12 12 C-11.06409496 10.8944811 -10.12620142 9.79064547 -9.1875 8.6875 C-8.66542969 8.07261719 -8.14335938 7.45773437 -7.60546875 6.82421875 C-6.12827531 5.14575321 -4.59960869 3.56117966 -3 2 C-4.32 2.99 -5.64 3.98 -7 5 C-7.66 4.67 -8.32 4.34 -9 4 C-4.5 0 -4.5 0 0 0 Z " fill="#4FA9E6" transform="translate(754,336)"/>
<path d="M0 0 C0 3.99282941 -1.47808076 5.15331592 -4 8.1875 C-4.7425 9.08855469 -5.485 9.98960937 -6.25 10.91796875 C-6.8275 11.60503906 -7.405 12.29210937 -8 13 C-8.66 11.68 -9.32 10.36 -10 9 C-8.89902432 7.87187697 -7.79408444 6.74762189 -6.6875 5.625 C-6.07261719 4.99851562 -5.45773437 4.37203125 -4.82421875 3.7265625 C-3 2 -3 2 0 0 Z " fill="#389AE0" transform="translate(751,342)"/>
<path d="M0 0 C2.46070116 0.61667207 4.91826521 1.24288393 7.375 1.875 C8.07367188 2.04902344 8.77234375 2.22304688 9.4921875 2.40234375 C14.7734375 3.7734375 14.7734375 3.7734375 17 6 C10.56318772 5.48914188 5.04057576 4.27057103 -1 2 C-0.67 1.34 -0.34 0.68 0 0 Z " fill="#284C83" transform="translate(307,759)"/>
<path d="M0 0 C0.66 0.33 1.32 0.66 2 1 C-3.77324158 6.08707762 -8.28146757 9.85651371 -16 11 C-13.02982901 7.53480051 -9.95041991 5.85812731 -5.90625 3.94921875 C-3.72770166 2.86440882 -1.86795979 1.55663316 0 0 Z M-10 9 C-9.34 9.66 -8.68 10.32 -8 11 C-8.66 11 -9.32 11 -10 11 C-10 10.34 -10 9.68 -10 9 Z " fill="#1A66B2" transform="translate(737,745)"/>
<path d="M0 0 C0.66 0.33 1.32 0.66 2 1 C1.34 1.66 0.68 2.32 0 3 C0.33 3.66 0.66 4.32 1 5 C-0.95330868 6.03041513 -2.91281528 7.0490893 -4.875 8.0625 C-5.96554687 8.63097656 -7.05609375 9.19945312 -8.1796875 9.78515625 C-9.11039062 10.18605469 -10.04109375 10.58695313 -11 11 C-11.66 10.67 -12.32 10.34 -13 10 C-11.58367866 8.89539041 -10.16692736 7.79133212 -8.75 6.6875 C-7.96109375 6.07261719 -7.1721875 5.45773437 -6.359375 4.82421875 C-4.2537703 3.19620982 -2.13390657 1.59064137 0 0 Z " fill="#D9E5F1" transform="translate(398,581)"/>
<path d="M0 0 C0 3.84308365 -1.30179208 5.41787428 -3.375 8.625 C-4.00148438 9.60726563 -4.62796875 10.58953125 -5.2734375 11.6015625 C-7 14 -7 14 -9 15 C-8.49396008 12.83125748 -8.00016187 11.00032373 -7 9 C-6.34 9 -5.68 9 -5 9 C-4.9175 8.443125 -4.835 7.88625 -4.75 7.3125 C-3.77389987 4.30285794 -2.04811186 2.37845248 0 0 Z " fill="#2A88D1" transform="translate(671,429)"/>
<path d="M0 0 C0 3 0 3 -1.3125 4.38671875 C-2.875 5.59114583 -4.4375 6.79557292 -6 8 C-6.99 7.01 -7.98 6.02 -9 5 C-8.071875 4.54625 -7.14375 4.0925 -6.1875 3.625 C-2.96078611 2.0578367 -2.96078611 2.0578367 0 0 Z " fill="#C7E7F8" transform="translate(751,337)"/>
<path d="M0 0 C0 3.77910478 -0.99703962 4.46106101 -3.5 7.1875 C-4.1496875 7.90292969 -4.799375 8.61835938 -5.46875 9.35546875 C-5.9740625 9.89816406 -6.479375 10.44085938 -7 11 C-7.66 10.67 -8.32 10.34 -9 10 C-6.03 6.7 -3.06 3.4 0 0 Z " fill="#4A98D8" transform="translate(698,394)"/>
<path d="M0 0 C0.99 0 1.98 0 3 0 C2.67 1.65 2.34 3.3 2 5 C1.01 5.33 0.02 5.66 -1 6 C-1.042721 4.33388095 -1.04063832 2.66617115 -1 1 C-0.67 0.67 -0.34 0.34 0 0 Z " fill="#18549F" transform="translate(761,727)"/>
<path d="M0 0 C0.99 0.99 1.98 1.98 3 3 C3 4.32 3 5.64 3 7 C1.02 7.99 1.02 7.99 -1 9 C-0.67 6.03 -0.34 3.06 0 0 Z " fill="#3483C8" transform="translate(235,305)"/>
</svg>
